<svg width="26" height="26" viewBox="0 0 26 26" fill="none" xmlns="http://www.w3.org/2000/svg">
<path d="M25.6758 13.007C25.6758 20.2048 20.0086 26.0087 12.9891 26C6.02042 25.9913 0.33623 20.1281 0.363378 12.9756C0.390526 5.7987 6.06453 -0.0104403 13.04 1.40884e-05C20.0256 0.00872605 25.6758 5.82483 25.6758 13.007ZM13.0026 21.3008C14.2413 21.3008 15.4816 21.3164 16.7203 21.2973C19.1976 21.2607 21.0912 19.3441 21.1183 16.8089C21.1471 14.2632 21.1471 11.7193 21.12 9.17371C21.0928 6.64898 19.1551 4.71318 16.7016 4.7097C14.2379 4.70621 11.7725 4.70447 9.30876 4.71144C6.8705 4.71841 4.94127 6.70996 4.93618 9.21552C4.93278 11.6897 4.93448 14.1622 4.93618 16.6364C4.93618 19.3493 6.81112 21.2868 9.45299 21.3008C10.6356 21.306 11.82 21.3008 13.0026 21.3008Z" fill="white"/>
<path d="M19.693 12.9971C19.693 14.2272 19.6981 15.4574 19.6913 16.6875C19.6811 18.51 18.4068 19.8273 16.6337 19.836C14.2379 19.8464 11.842 19.8464 9.44787 19.836C7.6442 19.829 6.36313 18.5257 6.35295 16.677C6.33938 14.2307 6.33938 11.7861 6.35295 9.33981C6.36313 7.48417 7.63741 6.17737 9.43769 6.16866C11.8335 6.15821 14.2294 6.15647 16.6235 6.16866C18.4255 6.17737 19.6862 7.49636 19.693 9.35027C19.6964 10.5647 19.693 11.7809 19.693 12.9971ZM13.0382 17.5291C15.4612 17.5308 17.4719 15.4765 17.4685 13.0058C17.4651 10.5438 15.4426 8.47385 13.0365 8.47211C10.6136 8.47036 8.63342 10.509 8.63003 13.0076C8.62833 15.5131 10.5932 17.5291 13.0382 17.5291ZM17.3514 9.52625C17.8723 9.53148 18.3169 9.08194 18.3101 8.55574C18.3033 8.04696 17.8706 7.60962 17.3718 7.60614C16.8373 7.60265 16.4131 8.03302 16.4216 8.57491C16.4284 9.10459 16.8356 9.52102 17.3514 9.52625Z" fill="white"/>
<path d="M15.9155 13.021C15.9053 14.6658 14.5988 16.0022 13.0106 15.99C11.4173 15.9796 10.1227 14.631 10.1329 12.9914C10.1414 11.3622 11.475 10.0206 13.0615 10.0433C14.6378 10.0676 15.924 11.4093 15.9155 13.021Z" fill="white"/>
</svg>
