<svg width="27" height="26" viewBox="0 0 27 26" fill="none" xmlns="http://www.w3.org/2000/svg">
<path d="M26.0118 13.0035C26.0084 20.1647 20.3304 25.993 13.3513 26C6.35515 26.007 0.692439 20.1769 0.699225 12.9704C0.706011 5.7952 6.37041 -0.00522365 13.3614 3.53016e-06C20.3372 0.00523071 26.0152 5.84225 26.0118 13.0035ZM13.3818 7.22919C11.6362 7.33373 9.87016 7.40866 8.11096 7.55328C6.49256 7.6857 5.8547 8.35304 5.69693 10.0013C5.50354 12.0121 5.50014 14.0263 5.70711 16.037C5.86318 17.5686 6.45184 18.1888 7.93792 18.384C10.3333 18.6976 12.7422 18.6959 15.1478 18.6279C16.3981 18.5931 17.65 18.5025 18.8918 18.3613C20.2083 18.2115 20.8037 17.6452 20.9496 16.2984C21.0989 14.9253 21.143 13.5349 21.1515 12.1514C21.1566 11.2559 21.048 10.3533 20.9258 9.46468C20.785 8.44538 20.1811 7.8338 19.1887 7.64388C18.9834 7.6038 18.7782 7.55677 18.5712 7.54283C16.8493 7.4348 15.1274 7.33373 13.3818 7.22919Z" fill="white"/>
<path d="M15.8521 12.9764C14.483 13.7936 13.1836 14.5707 11.8281 15.3809C11.8281 13.7623 11.8281 12.2202 11.8281 10.6016C13.1853 11.4031 14.4881 12.1715 15.8521 12.9764Z" fill="white"/>
</svg>
