<svg width="237" height="123" viewBox="0 0 237 123" fill="none" xmlns="http://www.w3.org/2000/svg">
<path d="M165.978 74.4292H161.178V72.457H173.431V74.4292H168.631V87.1196H165.978V74.4292Z" fill="white"/>
<path d="M182.785 83.8384H176.146L174.802 87.1139H171.993L178.359 72.457H180.583L186.95 87.1139H184.151L182.797 83.8384H182.785ZM182.027 81.872L179.491 75.4581H179.441L176.904 81.872H182.022H182.027Z" fill="white"/>
<path d="M194.521 79.0587H200.742V82.0427C200.709 83.5061 200.112 84.7351 198.941 85.7298C197.765 86.713 196.282 87.216 194.498 87.2446C193.121 87.216 191.973 86.9359 191.053 86.3986C190.117 85.8841 189.436 85.2839 189.013 84.6094C188.885 84.3864 188.767 84.1749 188.667 83.9748C188.572 83.769 188.489 83.5061 188.427 83.1917C188.305 82.6029 188.249 81.471 188.249 79.7961C188.249 78.1212 188.31 76.9551 188.427 76.3777C188.556 75.8004 188.751 75.3373 189.018 74.9829C189.442 74.3084 190.122 73.7024 191.059 73.1708C191.979 72.6335 193.127 72.3591 194.504 72.3477C196.193 72.3591 197.57 72.7821 198.635 73.6053C199.7 74.4341 200.374 75.4631 200.653 76.6921H197.838C197.62 76.0976 197.23 75.5946 196.661 75.1773C196.07 74.7771 195.346 74.5771 194.498 74.5599C193.874 74.5713 193.339 74.68 192.887 74.8743C192.43 75.0744 192.062 75.3259 191.783 75.6289C191.438 75.9433 191.209 76.3491 191.098 76.8465C190.97 77.3724 190.903 78.3556 190.903 79.7961C190.903 81.2367 190.97 82.2199 191.098 82.7287C191.209 83.2374 191.438 83.649 191.783 83.9691C192.062 84.2721 192.436 84.5179 192.887 84.7065C193.339 84.9295 193.874 85.0381 194.498 85.0381C195.535 85.0381 196.388 84.7408 197.063 84.152C197.737 83.5861 198.083 82.843 198.1 81.9226V81.1566H194.526V79.0702L194.521 79.0587Z" fill="white"/>
<path d="M150.881 62.1897C150.881 63.1272 150.157 63.8303 149.242 63.8303H133.979C133.025 63.8303 132.267 63.0472 132.267 62.0754V38.3809C132.267 37.4034 133.031 36.5859 133.979 36.5859H149.242C150.157 36.5859 150.881 37.3291 150.881 38.2666C150.881 39.2041 150.157 39.9072 149.242 39.9072H135.729V48.5332H147.871C148.785 48.5332 149.51 49.2764 149.51 50.2139C149.51 51.1514 148.785 51.8545 147.871 51.8545H135.729V60.5205H149.242C150.157 60.5205 150.881 61.2637 150.881 62.2012V62.1897Z" fill="white"/>
<path d="M177.573 60.3929C177.534 61.136 177.233 61.5247 176.737 61.7991C174.379 63.1653 171.787 64.2172 168.057 64.2172C160.481 64.2172 154.733 58.9066 154.733 50.2062C154.733 41.5059 160.481 36.1953 168.057 36.1953C171.787 36.1953 174.379 37.2471 176.737 38.6134C177.233 38.8877 177.534 39.2765 177.573 40.0196C177.612 40.837 177.005 41.5802 176.051 41.5802C175.862 41.5802 175.594 41.5402 175.366 41.4258C173.348 40.334 171.368 39.5909 168.397 39.5909C161.657 39.5909 158.195 44.1983 158.195 50.2062C158.195 56.2142 161.657 60.8216 168.397 60.8216C171.368 60.8216 173.348 60.0785 175.366 58.9866C175.594 58.8666 175.862 58.8323 176.051 58.8323C177.005 58.8323 177.612 59.5754 177.573 60.3929Z" fill="white"/>
<path d="M174.457 56.8808C174.435 57.3667 174.234 57.6239 173.91 57.8011C172.366 58.6986 170.666 59.3845 168.224 59.3845C163.263 59.3845 159.494 55.909 159.494 50.204C159.494 44.499 163.257 41.0234 168.224 41.0234C170.666 41.0234 172.366 41.7151 173.91 42.6069C174.234 42.7841 174.435 43.0413 174.457 43.5272C174.479 44.0646 174.083 44.5505 173.459 44.5505C173.336 44.5505 173.158 44.5276 173.007 44.4476C171.686 43.733 170.387 43.2471 168.442 43.2471C164.026 43.2471 161.758 46.2654 161.758 50.204C161.758 54.1426 164.026 57.1609 168.442 57.1609C170.387 57.1609 171.686 56.675 173.007 55.9604C173.158 55.8861 173.331 55.8575 173.459 55.8575C174.083 55.8575 174.479 56.3434 174.457 56.8808Z" fill="white"/>
<path d="M204.22 38.1817V62.2649C204.22 63.2424 203.423 64.0198 202.47 64.0198C201.517 64.0198 200.759 63.2367 200.759 62.2649V51.8839H186.331V62.2649C186.331 63.2424 185.534 64.0198 184.581 64.0198C183.627 64.0198 182.869 63.2367 182.869 62.2649V38.1817C182.869 37.2042 183.633 36.3867 184.581 36.3867C185.528 36.3867 186.331 37.2042 186.331 38.1817V48.5627H200.759V38.1817C200.759 37.2042 201.522 36.3867 202.47 36.3867C203.418 36.3867 204.22 37.2042 204.22 38.1817Z" fill="white"/>
<path d="M236.733 50.2023C236.582 58.3596 231.481 64.2133 223.37 64.2133C215.259 64.2133 210.163 58.3596 210.007 50.2023C210.158 42.045 215.22 36.1914 223.37 36.1914C231.52 36.1914 236.577 42.045 236.733 50.2023ZM233.271 50.2023C233.271 44.1887 229.653 39.5069 223.376 39.5069C217.098 39.5069 213.48 44.1887 213.48 50.2023C213.48 56.216 217.059 60.8977 223.376 60.8977C229.692 60.8977 233.271 56.216 233.271 50.2023Z" fill="white"/>
<path d="M8.59712 4.97626C14.4283 4.96483 20.2595 4.97626 26.0907 4.97055C29.3074 4.97055 29.2739 4.97055 29.3185 1.63216C29.3353 0.608927 29.1792 0.180196 28.0085 0.191629C21.3132 0.260226 14.6179 0.271658 7.92258 0.203061C4.04811 0.163047 0.184802 3.75295 0.268423 7.90307C0.33532 11.1729 0.279573 14.4426 0.279573 17.7124H0.273998V26.5386C0.273998 29.9513 0.273998 29.8941 3.54081 29.9856C4.70036 30.0199 4.96238 29.6769 4.95123 28.5222C4.89548 21.9369 4.92335 15.3515 4.92893 8.76624C4.92893 6.04523 5.95468 4.98198 8.59155 4.97626H8.59712Z" fill="white"/>
<path d="M96.9063 4.97033C103.189 4.90745 109.472 4.93603 115.749 4.94175C118.726 4.94175 119.735 5.95927 119.741 8.97754C119.752 14.814 119.746 20.6447 119.746 26.4812C119.746 29.9625 119.746 29.9053 123.136 29.9625C124.228 29.9796 124.384 29.5852 124.368 28.6077C124.312 25.155 124.345 21.7023 124.345 18.2438C124.345 15.117 124.345 11.9901 124.345 8.86321C124.334 3.66127 120.9 0.185697 115.805 0.191413C110.024 0.202846 104.243 0.191413 98.4616 0.191413C95.3509 0.191413 95.4234 0.191413 95.323 3.38689C95.2785 4.71309 95.691 4.97605 96.9007 4.96462L96.9063 4.97033Z" fill="white"/>
<path d="M27.9192 118.01C21.6309 118.073 15.3481 118.044 9.05978 118.039C5.72049 118.039 4.9456 117.25 4.9456 113.894C4.9456 108.052 4.9456 102.216 4.9456 96.3734C4.9456 93.0008 4.9456 93.0522 1.61189 92.9893C0.508085 92.9665 0.246071 93.3152 0.26837 94.3956C0.335267 97.8997 0.290669 101.404 0.290669 104.908H0.318543C0.318543 108.504 0.262795 112.105 0.335267 115.701C0.402164 119.016 3.44041 122.492 6.65705 122.595C13.1182 122.795 19.5905 122.738 26.0572 122.778C29.3185 122.795 29.2683 122.783 29.3408 119.468C29.3686 118.296 29.0676 118.004 27.9192 118.016V118.01Z" fill="white"/>
<path d="M121.376 92.9925C120.027 92.941 119.726 93.3526 119.743 94.6903C119.815 101.178 119.788 107.672 119.765 114.16C119.76 116.95 118.678 118.042 115.941 118.048C110.205 118.059 104.463 118.048 98.7262 118.053C95.3311 118.053 95.3646 118.053 95.3423 121.535C95.3423 122.501 95.5876 122.815 96.5576 122.809C103.208 122.764 109.853 122.809 116.504 122.769C121.142 122.741 124.337 119.419 124.365 114.675C124.381 111.405 124.365 108.135 124.365 104.871C124.365 101.927 124.365 98.989 124.365 96.0451C124.365 93.0325 124.365 93.1125 121.365 92.9925H121.376Z" fill="white"/>
<path d="M37.2671 36.5H15.2671V14.5H37.2671V36.5ZM19.7845 31.9825H32.7496V19.0175H19.7845V31.9825Z" fill="white"/>
<path d="M61.2671 14.5H39.2671V36.5H61.2671V14.5Z" fill="white"/>
<path d="M85.2671 14.5H63.2671V36.5H85.2671V14.5Z" fill="white"/>
<path d="M109.267 14.5H87.2671V36.5H109.267V14.5Z" fill="white"/>
<path d="M37.2671 38.5H15.2671V60.5H37.2671V38.5Z" fill="white"/>
<path d="M61.2671 38.5H39.2671V60.5H61.2671V38.5Z" fill="white"/>
<path d="M85.2671 38.5H63.2671V60.5H85.2671V38.5Z" fill="white"/>
<path d="M109.267 38.5H87.2671V60.5H109.267V38.5Z" fill="white"/>
<path d="M37.2671 62.5H15.2671V84.5H37.2671V62.5Z" fill="white"/>
<path d="M61.2671 62.5H39.2671V84.5H61.2671V62.5Z" fill="white"/>
<path d="M85.2671 62.5H63.2671V84.5H85.2671V62.5Z" fill="white"/>
<path d="M109.267 62.5H87.2671V84.5H109.267V62.5Z" fill="white"/>
<path d="M37.2671 108.5H15.2671V86.5H37.2671V108.5ZM19.7845 103.983H32.7496V91.0175H19.7845V103.983Z" fill="white"/>
<path d="M61.2671 86.5H39.2671V108.5H61.2671V86.5Z" fill="white"/>
<path d="M85.2671 86.5H63.2671V108.5H85.2671V86.5Z" fill="white"/>
<path d="M109.267 108.5H87.2671V86.5H109.267V108.5ZM91.7845 103.983H104.75V91.0175H91.7845V103.983Z" fill="white"/>
</svg>
